<?xml version="1.0" encoding="UTF-8" ?><!DOCTYPE svg PUBLIC "-//W3C//DTD SVG 1.1//EN" "http://www.w3.org/Graphics/SVG/1.1/DTD/svg11.dtd"><svg width="71pt" height="71pt" viewBox="0 0 71 71" version="1.1" xmlns="http://www.w3.org/2000/svg"><path fill="#eb663a" d=" M 0.00 0.00 L 71.00 0.00 L 71.00 71.00 L 0.00 71.00 L 0.00 0.00 Z" /><path fill="#fffffe" d=" M 15.60 18.11 C 27.92 18.11 40.23 18.09 52.55 18.12 C 52.56 19.83 52.52 21.54 52.50 23.25 C 50.77 23.27 49.04 23.22 47.32 23.23 C 47.40 31.13 47.13 39.03 47.45 46.91 C 47.93 50.16 51.82 49.90 54.23 49.41 C 54.21 51.04 54.21 52.66 54.23 54.29 C 51.44 54.80 48.48 55.25 45.75 54.26 C 42.88 53.13 41.27 50.01 41.20 47.04 C 40.96 39.11 41.31 31.18 41.04 23.26 C 36.55 23.22 32.05 23.27 27.57 23.20 C 27.50 33.54 27.58 43.88 27.53 54.23 C 25.44 54.22 23.35 54.21 21.27 54.20 C 21.30 43.88 21.28 33.55 21.28 23.23 C 19.38 23.22 17.48 23.25 15.58 23.24 C 15.60 21.53 15.59 19.82 15.60 18.11 Z" /></svg>